<svg width="22" height="22" viewBox="0 0 22 22" fill="none" xmlns="http://www.w3.org/2000/svg">
<path d="M18.2265 12.8178L17.2294 11.1589C17.0088 10.7972 16.8147 10.1001 16.8147 9.67659V8.02659C16.8147 4.82364 14.2118 2.2207 11.0177 2.2207C7.81471 2.22953 5.21177 4.82364 5.21177 8.02659V9.66776C5.21177 10.0913 5.01765 10.7884 4.80589 11.1501L3.80883 12.8089C3.42942 13.4531 3.34118 14.1854 3.57942 14.8207C3.81765 15.4648 4.35589 15.9766 5.06177 16.206C6.01471 16.5236 6.97648 16.7531 7.95589 16.9207C8.05295 16.9384 8.15001 16.9472 8.24707 16.9648C8.37059 16.9825 8.50295 17.0001 8.6353 17.0178C8.86471 17.0531 9.09412 17.0795 9.33236 17.0972C9.88824 17.1501 10.4529 17.1766 11.0177 17.1766C11.5735 17.1766 12.1294 17.1501 12.6765 17.0972C12.8794 17.0795 13.0824 17.0619 13.2765 17.0354C13.4353 17.0178 13.5941 17.0001 13.7529 16.9736C13.85 16.9648 13.9471 16.9472 14.0441 16.9295C15.0324 16.7707 16.0118 16.5236 16.9647 16.206C17.6441 15.9766 18.1647 15.4648 18.4118 14.8119C18.6588 14.1501 18.5882 13.4266 18.2265 12.8178ZM11.6618 9.23541C11.6618 9.606 11.3618 9.906 10.9912 9.906C10.6206 9.906 10.3206 9.606 10.3206 9.23541V6.50012C10.3206 6.12953 10.6206 5.82953 10.9912 5.82953C11.3618 5.82953 11.6618 6.12953 11.6618 6.50012V9.23541Z" fill="#133F30"/>
<path d="M13.497 18.0677C13.1264 19.0912 12.147 19.8235 11 19.8235C10.3029 19.8235 9.61466 19.5412 9.12937 19.0383C8.84701 18.7735 8.63525 18.4206 8.51172 18.0588C8.62642 18.0765 8.74113 18.0853 8.86466 18.103C9.0676 18.1294 9.27937 18.1559 9.49113 18.1735C9.99407 18.2177 10.5058 18.2441 11.0176 18.2441C11.5205 18.2441 12.0235 18.2177 12.5176 18.1735C12.7029 18.1559 12.8882 18.1471 13.0647 18.1206C13.2058 18.103 13.347 18.0853 13.497 18.0677Z" fill="#133F30"/>
</svg>
