<svg width="24" height="24" viewBox="0 0 24 24" fill="none" xmlns="http://www.w3.org/2000/svg">
<path d="M11.9995 14.8637C13.5811 14.8637 14.8633 13.5816 14.8633 12C14.8633 10.4184 13.5811 9.13623 11.9995 9.13623C10.4179 9.13623 9.13574 10.4184 9.13574 12C9.13574 13.5816 10.4179 14.8637 11.9995 14.8637Z" stroke="currentColor" stroke-width="1.43188"/>
<path d="M13.6848 2.5992C13.3345 2.4541 12.8897 2.4541 12 2.4541C11.1103 2.4541 10.6655 2.4541 10.3152 2.5992C10.0834 2.69515 9.87276 2.83584 9.69537 3.01322C9.51798 3.19061 9.37729 3.40122 9.28134 3.63301C9.19352 3.84589 9.1582 4.09503 9.14484 4.45682C9.13889 4.71837 9.06656 4.97411 8.93465 5.20003C8.80274 5.42595 8.61557 5.61464 8.39072 5.74837C8.16247 5.87633 7.90545 5.94416 7.64379 5.9455C7.38213 5.94683 7.12442 5.88163 6.89488 5.75601C6.57414 5.58609 6.34218 5.49254 6.11212 5.462C5.61032 5.39601 5.10284 5.53198 4.70125 5.84001C4.40151 6.07198 4.17813 6.45667 3.7333 7.22702C3.28846 7.99737 3.06509 8.38207 3.0164 8.75913C2.9836 9.00776 3.0001 9.26041 3.06496 9.50265C3.12982 9.7449 3.24177 9.97199 3.39442 10.171C3.5357 10.3542 3.7333 10.5079 4.03972 10.7008C4.49124 10.9843 4.78143 11.4673 4.78143 11.9999C4.78143 12.5326 4.49124 13.0156 4.03972 13.2982C3.7333 13.492 3.53474 13.6457 3.39442 13.8289C3.24177 14.0279 3.12982 14.255 3.06496 14.4972C3.0001 14.7395 2.9836 14.9921 3.0164 15.2408C3.06604 15.6169 3.28846 16.0025 3.73234 16.7729C4.17813 17.5432 4.40055 17.9279 4.70125 18.1599C4.90022 18.3125 5.12731 18.4245 5.36956 18.4893C5.6118 18.5542 5.86445 18.5707 6.11308 18.5379C6.34218 18.5074 6.57414 18.4138 6.89488 18.2439C7.12442 18.1183 7.38213 18.0531 7.64379 18.0544C7.90545 18.0557 8.16247 18.1236 8.39072 18.2515C8.85178 18.5188 9.12575 19.0104 9.14484 19.5431C9.1582 19.9058 9.19257 20.154 9.28134 20.3669C9.37729 20.5987 9.51798 20.8093 9.69537 20.9867C9.87276 21.1641 10.0834 21.3047 10.3152 21.4007C10.6655 21.5458 11.1103 21.5458 12 21.5458C12.8897 21.5458 13.3345 21.5458 13.6848 21.4007C13.9166 21.3047 14.1272 21.1641 14.3046 20.9867C14.482 20.8093 14.6227 20.5987 14.7187 20.3669C14.8065 20.154 14.8418 19.9058 14.8552 19.5431C14.8743 19.0104 15.1482 18.5179 15.6093 18.2515C15.8375 18.1236 16.0946 18.0557 16.3562 18.0544C16.6179 18.0531 16.8756 18.1183 17.1051 18.2439C17.4259 18.4138 17.6578 18.5074 17.8869 18.5379C18.1355 18.5707 18.3882 18.5542 18.6304 18.4893C18.8727 18.4245 19.0998 18.3125 19.2988 18.1599C19.5994 17.9289 19.8219 17.5432 20.2667 16.7729C20.7115 16.0025 20.9349 15.6178 20.9836 15.2408C21.0164 14.9921 20.9999 14.7395 20.935 14.4972C20.8702 14.255 20.7582 14.0279 20.6056 13.8289C20.4643 13.6457 20.2667 13.492 19.9603 13.2991C19.7367 13.1632 19.5513 12.9727 19.4215 12.7454C19.2918 12.5181 19.2219 12.2616 19.2186 11.9999C19.2186 11.4673 19.5088 10.9843 19.9603 10.7017C20.2667 10.5079 20.4653 10.3542 20.6056 10.171C20.7582 9.97199 20.8702 9.7449 20.935 9.50265C20.9999 9.26041 21.0164 9.00776 20.9836 8.75913C20.934 8.38303 20.7115 7.99737 20.2677 7.22702C19.8219 6.45667 19.5994 6.07198 19.2988 5.84001C19.0998 5.68737 18.8727 5.57542 18.6304 5.51055C18.3882 5.44569 18.1355 5.42919 17.8869 5.462C17.6578 5.49254 17.4259 5.58609 17.1042 5.75601C16.8747 5.88146 16.6172 5.94657 16.3557 5.94523C16.0943 5.9439 15.8374 5.87616 15.6093 5.74837C15.3844 5.61464 15.1973 5.42595 15.0654 5.20003C14.9334 4.97411 14.8611 4.71837 14.8552 4.45682C14.8418 4.09408 14.8074 3.84589 14.7187 3.63301C14.6227 3.40122 14.482 3.19061 14.3046 3.01322C14.1272 2.83584 13.9166 2.69515 13.6848 2.5992Z" stroke="currentColor" stroke-width="1.43188"/>
</svg>
