<svg width="49" height="48" viewBox="0 0 49 48" fill="none" xmlns="http://www.w3.org/2000/svg">
<g clip-path="url(#clip0_2778_14519)">
<path d="M24.5386 47.9984C11.3287 48.041 0.539982 37.2867 0.500111 24.0383C0.460239 10.8242 11.2063 0.0437648 24.4602 -0.000231561C37.6729 -0.0442279 48.452 10.6991 48.5001 23.9585C48.5469 37.1698 37.7953 47.9558 24.54 47.9984H24.5386ZM21.914 19.871C21.914 21.8893 21.9112 23.9063 21.914 25.9246C21.9167 27.492 22.9919 28.6304 24.4712 28.6428C25.974 28.6565 27.0821 27.5098 27.0849 25.9246C27.089 21.9072 27.089 17.8898 27.0849 13.8724C27.0849 12.283 25.985 11.1226 24.4974 11.1226C23.007 11.1226 21.9167 12.2802 21.914 13.8724C21.9112 15.8728 21.914 17.8719 21.914 19.8724V19.871ZM21.5675 34.321C21.573 35.9503 22.8709 37.2427 24.4987 37.2385C26.1239 37.2344 27.4162 35.9324 27.4121 34.3032C27.408 32.678 26.106 31.3815 24.4809 31.3857C22.8571 31.3884 21.5634 32.6932 21.5689 34.3224L21.5675 34.321Z" fill="#133F30"/>
</g>
<defs>
<clipPath id="clip0_2778_14519">
<rect width="48" height="47.9986" fill="white" transform="translate(0.5)"/>
</clipPath>
</defs>
</svg>
