<svg width="24" height="24" viewBox="0 0 24 24" fill="none" xmlns="http://www.w3.org/2000/svg">
<path d="M12.9426 3.37912C12.6926 3.12918 12.3535 2.98877 12 2.98877C11.6465 2.98877 11.3074 3.12918 11.0574 3.37912L2.19549 12.2397C2.13351 12.3017 2.08435 12.3753 2.05081 12.4562C2.01726 12.5372 2 12.624 2 12.7117C2 12.7993 2.01726 12.8861 2.05081 12.9671C2.08435 13.0481 2.13351 13.1216 2.19549 13.1836C2.32066 13.3088 2.49043 13.3791 2.66745 13.3791C2.7551 13.3791 2.8419 13.3619 2.92288 13.3283C3.00385 13.2948 3.07743 13.2456 3.13941 13.1836L12 4.32171L20.8606 13.1836C20.9858 13.3088 21.1555 13.3791 21.3325 13.3791C21.5096 13.3791 21.6793 13.3088 21.8045 13.1836C21.9297 13.0585 22 12.8887 22 12.7117C22 12.5346 21.9297 12.3649 21.8045 12.2397L18.6661 9.10264V4.71234C18.6661 4.53554 18.5959 4.36599 18.4709 4.24097C18.3458 4.11596 18.1763 4.04573 17.9995 4.04573H16.6663C16.4895 4.04573 16.3199 4.11596 16.1949 4.24097C16.0699 4.36599 15.9997 4.53554 15.9997 4.71234V6.43619L12.9426 3.37912Z" fill="currentColor"/>
<path d="M4.50098 13.976L12.0003 6.47664L17.1274 11.6037C16.3341 11.7111 15.5641 11.9646 14.8574 12.3549C13.8043 12.9364 12.9332 13.7989 12.3412 14.8462C11.7492 15.8935 11.4595 17.0845 11.5043 18.2867C11.538 19.1889 11.7591 20.0708 12.1498 20.8776H6.00081C5.60303 20.8776 5.22154 20.7195 4.94027 20.4383L4.58862 20.7899L4.94027 20.4383C4.65899 20.157 4.50098 19.7755 4.50098 19.3777V13.976Z" stroke="currentColor"/>
<path fill-rule="evenodd" clip-rule="evenodd" d="M18.8 14.0001V14.9009C19.0936 14.9769 19.3712 15.0929 19.6256 15.2433L20.2624 14.6057L21.3944 15.7377L20.7568 16.3745C20.9072 16.6289 21.0232 16.9065 21.0992 17.2001H22V18.8001H21.0992C21.0232 19.0937 20.9072 19.3713 20.7568 19.6257L21.3944 20.2625L20.2624 21.3945L19.6256 20.7569C19.3678 20.9091 19.0899 21.0243 18.8 21.0993V22.0001H17.2V21.0993C16.9101 21.0243 16.6322 20.9091 16.3744 20.7569L15.7376 21.3945L14.6056 20.2625L15.2432 19.6257C15.091 19.3679 14.9757 19.09 14.9008 18.8001H14V17.2001H14.9008C14.9768 16.9065 15.0928 16.6289 15.2432 16.3745L14.6056 15.7377L15.7376 14.6057L16.3744 15.2433C16.6322 15.0911 16.9101 14.9758 17.2 14.9009V14.0001H18.8ZM19.1248 16.8625L19.1376 16.8753C19.4208 17.1617 19.5968 17.5553 19.6 17.9889V18.0113C19.5979 18.3263 19.5028 18.6337 19.3267 18.895C19.1506 19.1562 18.9013 19.3596 18.6101 19.4797C18.3188 19.5999 17.9986 19.6313 17.6896 19.5702C17.3805 19.5091 17.0964 19.358 16.8728 19.1361L16.8648 19.1265C16.5731 18.8249 16.4116 18.4209 16.4149 18.0014C16.4183 17.5818 16.5862 17.1804 16.8827 16.8836C17.1791 16.5867 17.5803 16.4181 17.9998 16.4142C18.4194 16.4103 18.8228 16.5712 19.1248 16.8625Z" fill="currentColor"/>
</svg>
