<svg width="20" height="20" viewBox="0 0 20 20" fill="none" xmlns="http://www.w3.org/2000/svg">
<path d="M10.9426 1.37912C10.6926 1.12918 10.3535 0.98877 10 0.98877C9.64648 0.98877 9.30743 1.12918 9.05741 1.37912L0.195492 10.2397C0.133514 10.3017 0.0843494 10.3753 0.0508068 10.4562C0.0172642 10.5372 0 10.624 0 10.7117C0 10.7993 0.0172642 10.8861 0.0508068 10.9671C0.0843494 11.0481 0.133514 11.1216 0.195492 11.1836C0.320664 11.3088 0.490433 11.3791 0.667453 11.3791C0.755104 11.3791 0.841896 11.3619 0.922876 11.3283C1.00385 11.2948 1.07743 11.2456 1.13941 11.1836L10 2.32171L18.8606 11.1836C18.9858 11.3088 19.1555 11.3791 19.3325 11.3791C19.5096 11.3791 19.6793 11.3088 19.8045 11.1836C19.9297 11.0585 20 10.8887 20 10.7117C20 10.5346 19.9297 10.3649 19.8045 10.2397L16.6661 7.10264V2.71234C16.6661 2.53554 16.5959 2.36599 16.4709 2.24097C16.3458 2.11596 16.1763 2.04573 15.9995 2.04573H14.6663C14.4895 2.04573 14.3199 2.11596 14.1949 2.24097C14.0699 2.36599 13.9997 2.53554 13.9997 2.71234V4.43619L10.9426 1.37912Z" fill="currentColor"/>
<path d="M2.50098 11.976L10.0003 4.47664L15.1274 9.60373C14.3341 9.71113 13.5641 9.96463 12.8574 10.3549C11.8043 10.9364 10.9332 11.7989 10.3412 12.8462C9.74923 13.8935 9.45952 15.0845 9.50435 16.2867C9.538 17.1889 9.75906 18.0708 10.1498 18.8776H4.00081C3.60303 18.8776 3.22154 18.7195 2.94027 18.4383L2.58862 18.7899L2.94027 18.4383C2.65899 18.157 2.50098 17.7755 2.50098 17.3777V11.976Z" stroke="currentColor"/>
<path opacity="0.5" d="M13 15.3333C13 14.0763 13 13.4476 13.3907 13.0573C13.781 12.6666 14.4097 12.6666 15.6667 12.6666H16.3333C17.5903 12.6666 18.219 12.6666 18.6093 13.0573C19 13.4476 19 14.0763 19 15.3333V16.6666C19 17.9236 19 18.5523 18.6093 18.9426C18.219 19.3333 17.5903 19.3333 16.3333 19.3333H15.6667C14.4097 19.3333 13.781 19.3333 13.3907 18.9426C13 18.5523 13 17.9236 13 16.6666V15.3333Z" fill="currentColor"/>
<path fill-rule="evenodd" clip-rule="evenodd" d="M14.417 16C14.417 15.9337 14.4433 15.8701 14.4902 15.8232C14.5371 15.7763 14.6007 15.75 14.667 15.75H17.3337C17.4 15.75 17.4636 15.7763 17.5104 15.8232C17.5573 15.8701 17.5837 15.9337 17.5837 16C17.5837 16.0663 17.5573 16.1299 17.5104 16.1767C17.4636 16.2236 17.4 16.25 17.3337 16.25H14.667C14.6007 16.25 14.5371 16.2236 14.4902 16.1767C14.4433 16.1299 14.417 16.0663 14.417 16ZM14.417 14.6666C14.417 14.6003 14.4433 14.5367 14.4902 14.4898C14.5371 14.443 14.6007 14.4166 14.667 14.4166H17.3337C17.4 14.4166 17.4636 14.443 17.5104 14.4898C17.5573 14.5367 17.5837 14.6003 17.5837 14.6666C17.5837 14.7329 17.5573 14.7965 17.5104 14.8434C17.4636 14.8903 17.4 14.9166 17.3337 14.9166H14.667C14.6007 14.9166 14.5371 14.8903 14.4902 14.8434C14.4433 14.7965 14.417 14.7329 14.417 14.6666ZM14.417 17.3333C14.417 17.267 14.4433 17.2034 14.4902 17.1565C14.5371 17.1096 14.6007 17.0833 14.667 17.0833H16.3337C16.4 17.0833 16.4636 17.1096 16.5104 17.1565C16.5573 17.2034 16.5837 17.267 16.5837 17.3333C16.5837 17.3996 16.5573 17.4632 16.5104 17.5101C16.4636 17.557 16.4 17.5833 16.3337 17.5833H14.667C14.6007 17.5833 14.5371 17.557 14.4902 17.5101C14.4433 17.4632 14.417 17.3996 14.417 17.3333Z" fill="currentColor"/>
</svg>
