<svg width="24" height="24" viewBox="0 0 24 24" fill="none" xmlns="http://www.w3.org/2000/svg">
<path opacity="0.6" d="M15 1.99902H14C11.172 1.99902 9.757 1.99902 8.879 2.87802C8 3.75602 8 5.17102 8 7.99902V15.999C8 18.827 8 20.242 8.879 21.12C9.757 21.999 11.172 21.999 14 21.999H15C17.828 21.999 19.243 21.999 20.121 21.12C21 20.242 21 18.827 21 15.999V7.99902C21 5.17102 21 3.75602 20.121 2.87802C19.243 1.99902 17.828 1.99902 15 1.99902Z" fill="#C8EB87"/>
<path opacity="0.4" d="M8 7.99707C8 6.45907 8 5.34007 8.141 4.49707H8C5.643 4.49707 4.464 4.49707 3.732 5.22907C3 5.96107 3 7.14007 3 9.49707V14.4971C3 16.8541 3 18.0321 3.732 18.7651C4.464 19.4971 5.643 19.4971 8 19.4971H8.141C8 18.6541 8 17.5351 8 15.9971V11.2471V7.99707Z" fill="#C8EB87"/>
<path fill-rule="evenodd" clip-rule="evenodd" d="M4.47129 11.4672C4.33084 11.6079 4.25195 11.7985 4.25195 11.9972C4.25195 12.196 4.33084 12.3866 4.47129 12.5272L6.47129 14.5272C6.61347 14.6597 6.80151 14.7318 6.99582 14.7284C7.19012 14.725 7.3755 14.6463 7.51292 14.5088C7.65033 14.3714 7.72904 14.186 7.73247 13.9917C7.7359 13.7974 7.66377 13.6094 7.53129 13.4672L6.81129 12.7472H14.0013C14.2002 12.7472 14.391 12.6682 14.5316 12.5276C14.6723 12.3869 14.7513 12.1961 14.7513 11.9972C14.7513 11.7983 14.6723 11.6075 14.5316 11.4669C14.391 11.3262 14.2002 11.2472 14.0013 11.2472H6.81129L7.53129 10.5272C7.60498 10.4586 7.66408 10.3758 7.70507 10.2838C7.74607 10.1918 7.76811 10.0924 7.76988 9.99175C7.77166 9.89104 7.75314 9.79101 7.71542 9.69763C7.6777 9.60424 7.62155 9.51941 7.55033 9.44819C7.47911 9.37697 7.39428 9.32082 7.30089 9.2831C7.2075 9.24538 7.10747 9.22686 7.00677 9.22863C6.90607 9.23041 6.80675 9.25245 6.71476 9.29344C6.62276 9.33444 6.53996 9.39354 6.47129 9.46722L4.47129 11.4672Z" fill="#C8EB87"/>
</svg>
