<svg width="38" height="38" viewBox="0 0 38 38" fill="none" xmlns="http://www.w3.org/2000/svg">
<rect x="3.33398" y="3" width="32" height="32" rx="16" fill="#DAF2AF"/>
<rect x="3.33398" y="3" width="32" height="32" rx="16" stroke="#EDF8D7" stroke-width="5.33333"/>
<circle cx="24.2203" cy="22.8551" r="3.6129" fill="#133F30"/>
<path d="M22.7025 25.21V20.6577H24.1853C25.3363 20.6577 26.0257 21.2625 26.0257 22.2055C26.0257 22.9143 25.642 23.4281 24.9656 23.6427L26.0712 25.21H25.0957L24.0942 23.7532H23.5284V25.21H22.7025ZM23.5284 22.9989H24.2178C24.8356 22.9989 25.1803 22.7127 25.1803 22.2055C25.1803 21.7047 24.8356 21.4121 24.2178 21.4121H23.5284V22.9989Z" fill="#DAF2AF"/>
<path d="M20.3064 11.2861C20.1128 11.0926 19.8503 10.9839 19.5766 10.9839C19.3029 10.9839 19.0403 11.0926 18.8468 11.2861L11.9853 18.1465C11.9374 18.1945 11.8993 18.2515 11.8733 18.3142C11.8474 18.3769 11.834 18.4441 11.834 18.5119C11.834 18.5798 11.8474 18.647 11.8733 18.7097C11.8993 18.7724 11.9374 18.8294 11.9853 18.8773C12.0823 18.9743 12.2137 19.0287 12.3508 19.0287C12.4186 19.0287 12.4858 19.0153 12.5485 18.9894C12.6112 18.9634 12.6682 18.9253 12.7162 18.8773L19.5766 12.0159L26.437 18.8773C26.5339 18.9743 26.6653 19.0287 26.8024 19.0287C26.9394 19.0287 27.0709 18.9743 27.1678 18.8773C27.2647 18.7804 27.3192 18.649 27.3192 18.5119C27.3192 18.3749 27.2647 18.2434 27.1678 18.1465L24.7379 15.7176V12.3184C24.7379 12.1815 24.6835 12.0502 24.5867 11.9534C24.4899 11.8566 24.3586 11.8022 24.2217 11.8022H23.1895C23.0526 11.8022 22.9213 11.8566 22.8245 11.9534C22.7277 12.0502 22.6733 12.1815 22.6733 12.3184V13.6531L20.3064 11.2861Z" fill="#133F30"/>
<path d="M19.5764 13.1368L24.4404 18.0008C23.5815 17.9603 22.7283 18.1589 21.9756 18.5745C21.223 18.9901 20.6004 19.6065 20.1773 20.355C19.7542 21.1035 19.5472 21.9547 19.5792 22.8139C19.6113 23.6731 19.8811 24.5066 20.3588 25.2215H14.9312C14.5205 25.2215 14.1267 25.0584 13.8363 24.768C13.5459 24.4776 13.3828 24.0838 13.3828 23.6731V19.3304L19.5764 13.1368Z" fill="#133F30"/>
</svg>
