      <svg
          width="38"
          height="38"
          viewBox="0 0 38 38"
          fill="none"
          xmlns="http://www.w3.org/2000/svg"
        >
          <rect x="3" y="3" width="32" height="32" rx="16" fill="#DAF2AF" />
          <rect
            x="3"
            y="3"
            width="32"
            height="32"
            rx="16"
            stroke="#EDF8D7"
            stroke-width="5.33333"
          />
          <circle cx="23.7223" cy="22.4429" r="3.6129" fill="#133F30" />
          <path
            d="M23.8404 25.3683C22.8216 25.3683 22.0556 24.7975 21.9111 23.9087L22.7854 23.6919C22.9588 24.2845 23.3274 24.5518 23.8621 24.5518C24.4185 24.5518 24.7653 24.2556 24.7653 23.8365C24.7653 23.5041 24.5485 23.2873 23.8621 23.1428L23.3635 23.0344C22.4314 22.8393 21.9834 22.3696 21.9834 21.6615C21.9834 20.7727 22.7059 20.1368 23.7826 20.1368C24.7364 20.1368 25.4518 20.6426 25.6107 21.5097L24.7364 21.7265C24.6208 21.199 24.2667 20.9534 23.7537 20.9534C23.2262 20.9534 22.901 21.2279 22.901 21.6254C22.901 21.9505 23.1106 22.1312 23.8115 22.2829L24.3101 22.3913C25.2783 22.6008 25.683 23.0561 25.683 23.757C25.683 24.7036 24.9387 25.3683 23.8404 25.3683Z"
            fill="#DAF2AF"
          />
          <path
            d="M19.8044 11.0884C19.6108 10.8948 19.3483 10.7861 19.0746 10.7861C18.8009 10.7861 18.5384 10.8948 18.3448 11.0884L11.4834 17.9488C11.4354 17.9967 11.3973 18.0537 11.3714 18.1164C11.3454 18.1791 11.332 18.2463 11.332 18.3142C11.332 18.382 11.3454 18.4492 11.3714 18.5119C11.3973 18.5746 11.4354 18.6316 11.4834 18.6796C11.5803 18.7765 11.7118 18.831 11.8488 18.831C11.9167 18.831 11.9839 18.8176 12.0466 18.7916C12.1093 18.7656 12.1662 18.7276 12.2142 18.6796L19.0746 11.8182L25.935 18.6796C26.0319 18.7765 26.1634 18.831 26.3004 18.831C26.4375 18.831 26.5689 18.7765 26.6658 18.6796C26.7628 18.5827 26.8172 18.4512 26.8172 18.3142C26.8172 18.1771 26.7628 18.0457 26.6658 17.9488L24.2359 15.5198V12.1206C24.2359 11.9837 24.1815 11.8525 24.0847 11.7557C23.9879 11.6589 23.8567 11.6045 23.7198 11.6045H22.6875C22.5506 11.6045 22.4194 11.6589 22.3226 11.7557C22.2258 11.8525 22.1714 11.9837 22.1714 12.1206V13.4553L19.8044 11.0884Z"
            fill="#133F30"
          />
          <path
            d="M19.0744 12.9391L23.9384 17.8031C23.0796 17.7625 22.2263 17.9611 21.4737 18.3767C20.721 18.7924 20.0985 19.4088 19.6754 20.1573C19.2523 20.9057 19.0452 21.757 19.0773 22.6162C19.1093 23.4754 19.3792 24.3088 19.8569 25.0237H14.4292C14.0186 25.0237 13.6248 24.8606 13.3344 24.5702C13.044 24.2798 12.8809 23.886 12.8809 23.4753V19.1326L19.0744 12.9391Z"
            fill="#133F30"
          />
        </svg>