<svg width="38" height="38" viewBox="0 0 38 38" fill="none" xmlns="http://www.w3.org/2000/svg">
<rect x="2.66602" y="3" width="32" height="32" rx="16" fill="#DAF2AF"/>
<rect x="2.66602" y="3" width="32" height="32" rx="16" stroke="#EDF8D7" stroke-width="5.33333"/>
<circle cx="23.5524" cy="22.8551" r="3.6129" fill="#133F30"/>
<path d="M22.3607 24.2975C21.692 24.2975 21.2032 23.9286 21.111 23.3614L21.7612 23.2046C21.8673 23.5413 22.0748 23.6888 22.3791 23.6888C22.6835 23.6888 22.8725 23.532 22.8725 23.3015C22.8725 23.1124 22.748 22.9971 22.3699 22.9187L22.0379 22.8496C21.443 22.7204 21.1525 22.4161 21.1525 21.9503C21.1525 21.3693 21.6136 20.9589 22.3238 20.9589C22.9555 20.9589 23.4075 21.2863 23.5135 21.8397L22.8633 22.0011C22.7988 21.7059 22.6005 21.5676 22.3053 21.5676C22.0102 21.5676 21.8304 21.7152 21.8304 21.9273C21.8304 22.1025 21.9503 22.1993 22.3515 22.287L22.6789 22.3561C23.2922 22.4899 23.555 22.785 23.555 23.2461C23.555 23.8641 23.0801 24.2975 22.3607 24.2975ZM24.1301 24.2422V21.0142H24.8126V23.6058H26.0945V24.2422H24.1301Z" fill="#DAF2AF"/>
<path d="M19.6384 11.2861C19.4448 11.0926 19.1823 10.9839 18.9086 10.9839C18.6349 10.9839 18.3724 11.0926 18.1788 11.2861L11.3174 18.1465C11.2694 18.1945 11.2313 18.2515 11.2054 18.3142C11.1794 18.3769 11.166 18.4441 11.166 18.5119C11.166 18.5798 11.1794 18.647 11.2054 18.7097C11.2313 18.7724 11.2694 18.8294 11.3174 18.8773C11.4143 18.9743 11.5457 19.0287 11.6828 19.0287C11.7507 19.0287 11.8179 19.0153 11.8806 18.9894C11.9433 18.9634 12.0002 18.9253 12.0482 18.8773L18.9086 12.0159L25.769 18.8773C25.8659 18.9743 25.9973 19.0287 26.1344 19.0287C26.2715 19.0287 26.4029 18.9743 26.4998 18.8773C26.5967 18.7804 26.6512 18.649 26.6512 18.5119C26.6512 18.3749 26.5967 18.2434 26.4998 18.1465L24.0699 15.7176V12.3184C24.0699 12.1815 24.0155 12.0502 23.9187 11.9534C23.8219 11.8566 23.6906 11.8022 23.5538 11.8022H22.5215C22.3846 11.8022 22.2533 11.8566 22.1565 11.9534C22.0598 12.0502 22.0054 12.1815 22.0054 12.3184V13.6531L19.6384 11.2861Z" fill="#133F30"/>
<path d="M18.9084 13.1368L23.7724 18.0008C22.9136 17.9603 22.0603 18.1589 21.3076 18.5745C20.555 18.9901 19.9325 19.6065 19.5094 20.355C19.0863 21.1035 18.8792 21.9547 18.9113 22.8139C18.9433 23.6731 19.2132 24.5066 19.6908 25.2215H14.2632C13.8526 25.2215 13.4587 25.0584 13.1684 24.768C12.878 24.4776 12.7148 24.0838 12.7148 23.6731V19.3304L18.9084 13.1368Z" fill="#133F30"/>
</svg>
