<svg width="38" height="38" viewBox="0 0 38 38" fill="none" xmlns="http://www.w3.org/2000/svg">
<rect x="3" y="3" width="32" height="32" rx="16" fill="#DAF2AF"/>
<rect x="3" y="3" width="32" height="32" rx="16" stroke="#EDF8D7" stroke-width="5.33333"/>
<path d="M19.0009 17.3996C19.6374 17.3996 20.2478 17.1468 20.6979 16.6967C21.148 16.2466 21.4009 15.6361 21.4009 14.9996C21.4009 14.3631 21.148 13.7526 20.6979 13.3026C20.2478 12.8525 19.6374 12.5996 19.0009 12.5996C18.3643 12.5996 17.7539 12.8525 17.3038 13.3026C16.8537 13.7526 16.6009 14.3631 16.6009 14.9996C16.6009 15.6361 16.8537 16.2466 17.3038 16.6967C17.7539 17.1468 18.3643 17.3996 19.0009 17.3996ZM13.7729 22.5948C13.699 22.7931 13.691 23.0099 13.7501 23.2131C13.8092 23.4163 13.9322 23.5951 14.1009 23.7228C15.5019 24.8118 17.2264 25.4019 19.0009 25.3996C20.8489 25.3996 22.5513 24.7724 23.9057 23.7196C24.2497 23.4532 24.3889 22.9972 24.2321 22.5916C23.8259 21.534 23.1085 20.6245 22.1747 19.983C21.2409 19.3415 20.1346 18.9982 19.0016 18.9985C17.8687 18.9988 16.7625 19.3425 15.829 19.9844C14.8955 20.6264 14.1786 21.537 13.7729 22.5948Z" fill="#133F30"/>
</svg>
