<svg width="24" height="24" viewBox="0 0 24 24" fill="none" xmlns="http://www.w3.org/2000/svg">
<path fill-rule="evenodd" clip-rule="evenodd" d="M17 10V11.126C17.367 11.221 17.714 11.366 18.032 11.554L18.828 10.757L20.243 12.172L19.446 12.968C19.634 13.286 19.779 13.633 19.874 14H21V16H19.874C19.779 16.367 19.634 16.714 19.446 17.032L20.243 17.828L18.828 19.243L18.032 18.446C17.7097 18.6362 17.3623 18.7803 17 18.874V20H15V18.874C14.6377 18.7803 14.2903 18.6362 13.968 18.446L13.172 19.243L11.757 17.828L12.554 17.032C12.3638 16.7097 12.2197 16.3623 12.126 16H11V14H12.126C12.221 13.633 12.366 13.286 12.554 12.968L11.757 12.172L13.172 10.757L13.968 11.554C14.2903 11.3638 14.6377 11.2197 15 11.126V10H17ZM17.406 13.578L17.422 13.594C17.776 13.952 17.996 14.444 18 14.986V15.014C17.9974 15.4078 17.8785 15.792 17.6584 16.1186C17.4383 16.4451 17.1267 16.6994 16.7626 16.8496C16.3986 16.9997 15.9983 17.039 15.612 16.9626C15.2256 16.8862 14.8705 16.6974 14.591 16.42L14.581 16.408C14.2164 16.0311 14.0145 15.526 14.0186 15.0016C14.0228 14.4772 14.2328 13.9754 14.6034 13.6043C14.9739 13.2332 15.4754 13.0226 15.9998 13.0176C16.5242 13.0127 17.0285 13.2139 17.406 13.578ZM5 8C5.0002 7.44509 5.11586 6.89629 5.33962 6.3885C5.56339 5.8807 5.89036 5.42502 6.29975 5.05042C6.70914 4.67582 7.19199 4.3905 7.71761 4.2126C8.24323 4.0347 8.80012 3.96811 9.35286 4.01706C9.90561 4.06601 10.4421 4.22944 10.9283 4.49694C11.4145 4.76445 11.8397 5.13019 12.1769 5.57091C12.514 6.01162 12.7558 6.51768 12.8869 7.05689C13.0179 7.59611 13.0353 8.15669 12.938 8.703C11.5291 9.39048 10.3905 10.5291 9.703 11.938C9.12727 12.0408 8.536 12.0161 7.97085 11.8656C7.4057 11.7151 6.88042 11.4426 6.43202 11.0671C5.98362 10.6916 5.62301 10.2224 5.37559 9.69249C5.12817 9.16257 4.99996 8.58484 5 8ZM9.29 13H7C5.93913 13 4.92172 13.4214 4.17157 14.1716C3.42143 14.9217 3 15.9391 3 17V18C3 18.5304 3.21071 19.0391 3.58579 19.4142C3.96086 19.7893 4.46957 20 5 20H11.101C10.4349 19.3489 9.90585 18.5711 9.54502 17.7124C9.18419 16.8537 8.99888 15.9314 9 15C9 14.305 9.101 13.634 9.29 13Z" fill="currentColor"/>
</svg>
