<svg width="38" height="38" viewBox="0 0 38 38" fill="none" xmlns="http://www.w3.org/2000/svg">
<rect x="3" y="3" width="32" height="32" rx="16" fill="#DAF2AF"/>
<rect x="3" y="3" width="32" height="32" rx="16" stroke="#EDF8D7" stroke-width="5.33333"/>
<path d="M19 18.1994C19.6366 18.1994 20.247 17.9466 20.6971 17.4965C21.1472 17.0464 21.4 16.4359 21.4 15.7994C21.4 15.1629 21.1472 14.5524 20.6971 14.1024C20.247 13.6523 19.6366 13.3994 19 13.3994C18.3635 13.3994 17.7531 13.6523 17.303 14.1024C16.8529 14.5524 16.6 15.1629 16.6 15.7994C16.6 16.4359 16.8529 17.0464 17.303 17.4965C17.7531 17.9466 18.3635 18.1994 19 18.1994ZM15.8 17.3994C15.8 17.8238 15.6315 18.2307 15.3314 18.5308C15.0314 18.8308 14.6244 18.9994 14.2 18.9994C13.7757 18.9994 13.3687 18.8308 13.0687 18.5308C12.7686 18.2307 12.6 17.8238 12.6 17.3994C12.6 16.9751 12.7686 16.5681 13.0687 16.268C13.3687 15.968 13.7757 15.7994 14.2 15.7994C14.6244 15.7994 15.0314 15.968 15.3314 16.268C15.6315 16.5681 15.8 16.9751 15.8 17.3994ZM12.192 23.2602C12.0555 23.1826 11.9532 23.0563 11.9056 22.9066C11.7647 22.4501 11.7632 21.9619 11.9014 21.5045C12.0396 21.0471 12.3111 20.6414 12.6813 20.3393C13.0515 20.0371 13.5034 19.8524 13.9792 19.8087C14.455 19.7649 14.933 19.8642 15.352 20.0938C14.4907 20.9399 13.9517 22.06 13.828 23.261C13.8099 23.4397 13.8166 23.6141 13.848 23.7842C13.2643 23.733 12.699 23.5541 12.192 23.2602ZM24.152 23.7834C24.7357 23.7324 25.301 23.5538 25.808 23.2602C25.9443 23.1824 26.0463 23.0562 26.0936 22.9066C26.2348 22.45 26.2365 21.9617 26.0984 21.5042C25.9603 21.0466 25.6887 20.6407 25.3185 20.3385C24.9483 20.0363 24.4963 19.8514 24.0204 19.8077C23.5445 19.764 23.0663 19.8633 22.6472 20.093C23.5093 20.939 24.0489 22.0595 24.1728 23.261C24.1909 23.4355 24.1839 23.6117 24.152 23.7842M25.4 17.3994C25.4 17.8238 25.2315 18.2307 24.9314 18.5308C24.6314 18.8308 24.2244 18.9994 23.8 18.9994C23.3757 18.9994 22.9687 18.8308 22.6687 18.5308C22.3686 18.2307 22.2 17.8238 22.2 17.3994C22.2 16.9751 22.3686 16.5681 22.6687 16.268C22.9687 15.968 23.3757 15.7994 23.8 15.7994C24.2244 15.7994 24.6314 15.968 24.9314 16.268C25.2315 16.5681 25.4 16.9751 25.4 17.3994ZM15.2432 23.9514C15.1641 23.8809 15.1028 23.7927 15.0643 23.694C15.0258 23.5953 15.0112 23.4889 15.0216 23.3834C15.1234 22.399 15.5865 21.4873 16.3214 20.8244C17.0563 20.1616 18.0108 19.7947 19.0004 19.7947C19.9901 19.7947 20.9446 20.1616 21.6795 20.8244C22.4144 21.4873 22.8775 22.399 22.9792 23.3834C22.9897 23.4889 22.9751 23.5953 22.9366 23.694C22.8981 23.7927 22.8367 23.8809 22.7576 23.9514C21.7288 24.8846 20.3891 25.4009 19 25.3994C17.6111 25.4015 16.2715 24.8851 15.2432 23.9514Z" fill="#133F30"/>
</svg>
